<?xml version="1.0" encoding="UTF-8"?>
<svg width="36px" height="36px" viewBox="0 0 36 36" version="1.1" xmlns="http://www.w3.org/2000/svg" xmlns:xlink="http://www.w3.org/1999/xlink">
    <!-- Generator: sketchtool 51 (57462) - http://www.bohemiancoding.com/sketch -->
    <title>A4C40D03-FEEC-4594-B9D5-B64D7DE698D9</title>
    <desc>Created with sketchtool.</desc>
    <defs></defs>
    <g id="Page-1" stroke="none" stroke-width="1" fill="none" fill-rule="evenodd">
        <g id="Test-Task" transform="translate(-513.000000, -2111.000000)" fill="#FFFFFF">
            <rect x="0" y="0" width="1600" height="2220"></rect>
            <g id="footer" transform="translate(0.000000, 2005.000000)" fill-rule="nonzero">
                <g id="items" transform="translate(102.000000, 63.000000)">
                    <g id="2" transform="translate(411.000000, 26.000000)">
                        <path d="M16.5054975,17.0444863 C13.728415,17.2526695 10.7904238,18.2463223 8.31040367,19.8082591 C6.32436212,21.0652356 4.0671387,23.3226168 2.81025008,25.3087971 C1.24054585,27.8024944 0.261590527,30.7114328 0.0466704501,33.5325967 C-0.0849821625,35.2622053 0.0680499342,37.3800475 0.428125456,38.99825 C0.587908968,39.7139501 1.12239607,41.4075487 1.3451928,41.9083137 C2.44904932,44.38063 3.62267047,46.1237424 5.28351882,47.7768297 C8.01896754,50.4854621 11.2630229,52.1453012 15.1450872,52.8261166 C16.2421923,53.0129188 19.0552823,53.0624326 20.2210268,52.9093898 C24.2561231,52.3883692 27.7769866,50.6868934 30.658716,47.8533511 C33.5685763,44.9995531 35.3802062,41.3321526 35.9090672,37.2202528 C36.0620993,36.0533015 36.0137141,33.2400149 35.8257997,32.1439584 C35.1450319,28.2616228 33.4853088,25.018466 30.7768657,22.2817007 C29.1238941,20.6218616 27.3809035,19.4481584 24.90876,18.3430994 C24.4091552,18.1202871 22.7145498,17.5857626 21.9988997,17.4259679 C20.3875617,17.0647419 18.2417366,16.918451 16.5054975,17.0444863 Z M20.3943131,18.5299016 C22.1789374,18.8078544 23.6574975,19.2658574 25.290215,20.0580789 C30.7341068,22.6901899 34.3314863,28.1007028 34.6172962,34.0806249 C34.8254649,38.2746727 33.6585952,41.9983389 31.0964328,45.3112653 C30.5270634,46.047221 29.152025,47.4426112 28.4161206,48.0198976 C26.1619251,49.8065159 23.4899264,50.9896357 20.6519922,51.4577339 C19.2071891,51.69405 16.908332,51.69405 15.3948896,51.4577339 C10.0545195,50.6171239 5.42192285,47.1725357 3.06117771,42.2897954 C2.29940821,40.7474787 1.78380729,39.0953901 1.53310721,37.3935513 C1.35194422,36.2547329 1.34631804,33.9073265 1.51172773,32.7752599 C2.04734007,29.1708771 3.56753391,26.038001 6.01829793,23.4756596 C7.03213557,22.4133625 8.01784231,21.6357701 9.66406258,20.6072325 C10.1636674,20.294395 11.4903206,19.6698454 12.302741,19.371637 C13.2119317,19.0385439 14.6499833,18.6773179 15.7752193,18.5107713 C16.9072067,18.3442247 19.2544491,18.3509766 20.3931879,18.5321523 L20.3943131,18.5299016 Z M17.6172307,24.5233275 C17.4601414,24.6129962 17.3248716,24.7363618 17.2211476,24.8845535 L17.0613641,25.1208696 L17.0613641,30.6833 C17.0613641,36.0724319 17.0681155,36.2536075 17.2008933,36.4685426 C17.5002061,36.9546786 17.3674283,36.9411748 20.846658,36.9411748 C24.2426203,36.9411748 24.2910054,36.9344229 24.5621873,36.5596931 C24.8615001,36.1422014 24.8052383,35.6358098 24.4159066,35.2678319 L24.2077379,35.0664006 L19.0057719,35.0247639 L19.0057719,34.7333074 C18.9990205,34.5735128 18.9922691,32.3442644 18.9843924,29.7886748 C18.9708896,25.4134514 18.9630129,25.1219949 18.8448631,24.9273155 C18.5601784,24.4625605 18.0538222,24.2948886 17.6161054,24.5244528 L17.6172307,24.5233275 Z" id="icon_clock_white"></path>
                    </g>
                </g>
            </g>
        </g>
    </g>
</svg>