<?xml version="1.0" encoding="UTF-8"?>
<svg width="167px" height="22px" viewBox="0 0 167 22" version="1.1" xmlns="http://www.w3.org/2000/svg" xmlns:xlink="http://www.w3.org/1999/xlink">
    <!-- Generator: sketchtool 51 (57462) - http://www.bohemiancoding.com/sketch -->
    <title>13EE55F3-3296-4E86-A62B-B4BCEC48D453</title>
    <desc>Created with sketchtool.</desc>
    <defs></defs>
    <g id="Page-1" stroke="none" stroke-width="1" fill="none" fill-rule="evenodd">
        <g id="Test-Task" transform="translate(-102.000000, -2085.000000)" fill="#FFFFFF">
            <rect x="0" y="0" width="1600" height="2220"></rect>
            <g id="footer" transform="translate(0.000000, 2005.000000)">
                <g id="items" transform="translate(102.000000, 63.000000)">
                    <g id="1" transform="translate(0.000000, 17.000000)">
                        <path d="M3.89871862,22 L0,22 L0,19.9466667 L7.47498684,0 L12.4289977,0 L19.8746709,19.6533333 L19.8746709,22 L15.6535018,22 L13.9533088,17.336 L5.56959803,17.336 L3.89871862,22 Z M12.6635071,13.3466667 L9.79076707,5.25066667 L6.91802703,13.3466667 L12.6635071,13.3466667 Z M22.7180972,22 L22.7180972,0 L31.4828857,0 C33.6130233,0 35.3034283,0.5377724 36.5541513,1.61333333 C37.8048743,2.68889427 38.4302264,4.11643555 38.4302264,5.896 C38.4302264,6.97156093 38.166406,7.91510705 37.6387572,8.72666667 C37.1111085,9.53822628 36.3978162,10.1199982 35.498859,10.472 C36.6714119,10.8435574 37.5898978,11.4693289 38.2543444,12.3493333 C38.918791,13.2293377 39.2510093,14.2559941 39.2510093,15.4293333 C39.2510093,17.42401 38.571916,19.0177718 37.213709,20.2106667 C35.855502,21.4035615 33.9843312,22 31.6001404,22 L22.7180972,22 Z M27.3789714,8.85866667 L30.7207302,8.85866667 C31.6392299,8.85866667 32.3622933,8.63866887 32.8899421,8.19866667 C33.4175908,7.75866447 33.6814113,7.15733715 33.6814113,6.39466667 C33.6814113,5.63199619 33.4322475,5.02089119 32.9339126,4.56133333 C32.4355776,4.10177548 31.7369421,3.872 30.8379849,3.872 L27.3789714,3.872 L27.3789714,8.85866667 Z M27.3789714,18.128 L31.101808,18.128 C32.1961906,18.128 33.0316219,17.8444473 33.6081271,17.2773333 C34.1846322,16.7102194 34.4728805,16.0355595 34.4728805,15.2533333 C34.4728805,14.4711072 34.1944033,13.8257803 33.6374408,13.3173333 C33.0804782,12.8088863 32.2450468,12.5546667 31.1311216,12.5546667 L27.3789714,12.5546667 L27.3789714,18.128 Z M42.8565912,22 L42.8565912,0 L47.722661,0 L47.722661,14.608 L56.7805863,0 L61.6173425,0 L61.6173425,22 L56.7805863,22 L56.7805863,7.50933333 L47.722661,22 L42.8565912,22 Z M68.3008601,22 L64.4021415,22 L64.4021415,19.9466667 L71.8771283,0 L76.8311392,0 L84.2768124,19.6533333 L84.2768124,22 L80.0556433,22 L78.3554502,17.336 L69.9717395,17.336 L68.3008601,22 Z M77.0656486,13.3466667 L74.1929085,5.25066667 L71.3201685,13.3466667 L77.0656486,13.3466667 Z M87.1202387,22 L87.1202387,0 L105.177462,0 L105.177462,22 L100.311392,22 L100.311392,4.136 L91.9863086,4.136 L91.9863086,22 L87.1202387,22 Z M111.860979,22 L107.962261,22 L107.962261,19.9466667 L115.437248,0 L120.391259,0 L127.836932,19.6533333 L127.836932,22 L123.615763,22 L121.91557,17.336 L113.531859,17.336 L111.860979,22 Z M120.625768,13.3466667 L117.753028,5.25066667 L114.880288,13.3466667 L120.625768,13.3466667 Z M130.680358,22 L130.680358,0 L137.744953,0 C140.32457,0 142.381392,0.65510456 143.915482,1.96533333 C145.449572,3.27556211 146.216605,5.03554451 146.216605,7.24533333 C146.216605,8.20356035 146.040725,9.14221763 145.688959,10.0613333 C145.337193,10.980449 144.804667,11.7871076 144.091364,12.4813333 C143.378061,13.175559 142.493774,13.7377756 141.438476,14.168 C140.383179,14.5982244 139.152017,14.8133333 137.744953,14.8133333 L135.546428,14.8133333 L135.546428,22 L130.680358,22 Z M135.458487,10.7653333 L137.71564,10.7653333 C138.829565,10.7653333 139.713852,10.4426699 140.368527,9.79733333 C141.023203,9.15199677 141.350535,8.31111629 141.350535,7.27466667 C141.350535,6.35555096 141.032974,5.58800308 140.397841,4.972 C139.762708,4.35599692 138.86865,4.048 137.71564,4.048 L135.458487,4.048 L135.458487,10.7653333 Z M154.39512,12.4373333 L154.39512,22 L149.52905,22 L149.52905,0 L154.39512,0 L154.39512,9.44533333 L162.339126,0 L166.179217,0 L166.179217,2.2 L158.997367,10.56 L167,19.712 L167,22 L162.720204,22 L154.39512,12.4373333 Z" id="logotype_white"></path>
                    </g>
                </g>
            </g>
        </g>
    </g>
</svg>