<?xml version="1.0" encoding="UTF-8"?>
<svg width="186px" height="24px" viewBox="0 0 186 24" version="1.1" xmlns="http://www.w3.org/2000/svg" xmlns:xlink="http://www.w3.org/1999/xlink">
    <!-- Generator: sketchtool 51 (57462) - http://www.bohemiancoding.com/sketch -->
    <title>7F902543-2164-4DD9-A993-108CDAAB34CF</title>
    <desc>Created with sketchtool.</desc>
    <defs></defs>
    <g id="Page-1" stroke="none" stroke-width="1" fill="none" fill-rule="evenodd">
        <g id="Test-Task" transform="translate(-707.000000, -19.000000)">
            <rect fill="#FFFFFF" x="0" y="0" width="1600" height="2220"></rect>
            <g id="header" fill="#3D4252">
                <path d="M711.26049,43 L707,43 L707,40.76 L715.168608,19 L720.582313,19 L728.718887,40.44 L728.718887,43 L724.106026,43 L722.248068,37.912 L713.086414,37.912 L711.26049,43 Z M720.838583,33.56 L717.699275,24.728 L714.559966,33.56 L720.838583,33.56 Z M732.326688,43 L732.326688,19 L741.904781,19 C744.232579,19 746.079841,19.5866608 747.446621,20.76 C748.813402,21.9333392 749.496782,23.490657 749.496782,25.432 C749.496782,26.6053392 749.208481,27.6346622 748.63187,28.52 C748.05526,29.4053378 747.275779,30.0399981 746.293406,30.424 C747.574763,30.8293354 748.578477,31.5119952 749.304579,32.472 C750.030681,33.4320048 750.393727,34.5519936 750.393727,35.832 C750.393727,38.0080109 749.651619,39.7466602 748.167381,41.048 C746.683143,42.3493398 744.638342,43 742.032916,43 L732.326688,43 Z M737.420056,28.664 L741.071904,28.664 C742.075633,28.664 742.865791,28.4240024 743.442402,27.944 C744.019012,27.4639976 744.307313,26.8080042 744.307313,25.976 C744.307313,25.1439958 744.035029,24.4773358 743.490452,23.976 C742.945876,23.4746642 742.182412,23.224 741.200039,23.224 L737.420056,23.224 L737.420056,28.664 Z M737.420056,38.776 L741.488343,38.776 C742.684275,38.776 743.597228,38.4666698 744.227229,37.848 C744.857229,37.2293302 745.172224,36.4933376 745.172224,35.64 C745.172224,34.7866624 744.867907,34.0826694 744.259262,33.528 C743.650618,32.9733306 742.737665,32.696 741.520376,32.696 L737.420056,32.696 L737.420056,38.776 Z M754.834406,43 L754.834406,19 L760.15201,19 L760.15201,34.936 L770.05044,19 L775.33601,19 L775.33601,43 L770.05044,43 L770.05044,27.192 L760.15201,43 L754.834406,43 Z M783.140234,43 L778.879744,43 L778.879744,40.76 L787.048352,19 L792.462057,19 L800.598631,40.44 L800.598631,43 L795.98577,43 L794.127812,37.912 L784.966158,37.912 L783.140234,43 Z M792.718327,33.56 L789.579019,24.728 L786.439711,33.56 L792.718327,33.56 Z M804.206433,43 L804.206433,19 L823.939226,19 L823.939226,43 L818.621623,43 L818.621623,23.512 L809.524036,23.512 L809.524036,43 L804.206433,43 Z M831.74345,43 L827.482961,43 L827.482961,40.76 L835.651568,19 L841.065273,19 L849.201847,40.44 L849.201847,43 L844.588986,43 L842.731028,37.912 L833.569374,37.912 L831.74345,43 Z M841.321543,33.56 L838.182235,24.728 L835.042927,33.56 L841.321543,33.56 Z M852.809649,43 L852.809649,19 L860.529784,19 C863.348769,19 865.596448,19.7146595 867.27289,21.144 C868.949331,22.5733405 869.78754,24.4933213 869.78754,26.904 C869.78754,27.9493386 869.595339,28.9733283 869.210932,29.976 C868.826525,30.9786717 868.244584,31.8586629 867.465092,32.616 C866.6856,33.3733371 865.719258,33.9866643 864.566037,34.456 C863.412816,34.9253357 862.067412,35.16 860.529784,35.16 L858.127252,35.16 L858.127252,43 L852.809649,43 Z M858.031151,30.744 L860.49775,30.744 C861.715039,30.744 862.681381,30.3920035 863.396805,29.688 C864.112229,28.9839965 864.469936,28.0666723 864.469936,26.936 C864.469936,25.9333283 864.122907,25.0960034 863.428839,24.424 C862.734771,23.7519966 861.757751,23.416 860.49775,23.416 L858.031151,23.416 L858.031151,30.744 Z M879.225485,32.568 L879.225485,43 L873.907881,43 L873.907881,19 L879.225485,19 L879.225485,29.304 L887.906633,19 L892.103055,19 L892.103055,21.4 L884.254785,30.52 L893,40.504 L893,43 L888.323072,43 L879.225485,32.568 Z" id="logotype_dark"></path>
            </g>
        </g>
    </g>
</svg>